<mxfile host="drawio-plugin" modified="2022-04-28T13:36:19.702Z" agent="5.0 (Macintosh; Intel Mac OS X 10_15_7) AppleWebKit/537.36 (KHTML, like Gecko) Chrome/97.0.4692.45 Safari/537.36" etag="WjcWC1yC9IvebHEvu-NZ" version="15.5.4" type="embed"><diagram id="C5RBs43oDa-KdzZeNtuy" name="Page-1"><mxGraphModel dx="655" dy="464" grid="1" gridSize="10" guides="1" tooltips="1" connect="1" arrows="1" fold="1" page="1" pageScale="1" pageWidth="827" pageHeight="1169" math="0" shadow="0"><root><mxCell id="WIyWlLk6GJQsqaUBKTNV-0"/><mxCell id="WIyWlLk6GJQsqaUBKTNV-1" parent="WIyWlLk6GJQsqaUBKTNV-0"/><mxCell id="97" value="Models.py" style="rounded=0;whiteSpace=wrap;html=1;fillColor=none;dashed=1;labelPosition=left;verticalLabelPosition=top;align=right;verticalAlign=bottom;spacingLeft=0;spacingRight=-55;" vertex="1" parent="WIyWlLk6GJQsqaUBKTNV-1"><mxGeometry x="60" y="100" width="520" height="1160" as="geometry"/></mxCell><mxCell id="zkfFHV4jXpPFQw0GAbJ--0" value="BaseModel" style="swimlane;fontStyle=2;align=center;verticalAlign=top;childLayout=stackLayout;horizontal=1;startSize=30;horizontalStack=0;resizeParent=1;resizeLast=0;collapsible=1;marginBottom=0;rounded=0;shadow=0;strokeWidth=1;fontFamily=Courier New;fontSize=10;" parent="WIyWlLk6GJQsqaUBKTNV-1" vertex="1"><mxGeometry x="80" y="120" width="480" height="360" as="geometry"><mxRectangle x="230" y="140" width="160" height="26" as="alternateBounds"/></mxGeometry></mxCell><mxCell id="2sFI9Li3K3q5MDXTztL8-12" value="cs_duopoly: float" style="text;align=left;verticalAlign=middle;spacingLeft=4;spacingRight=4;overflow=hidden;rotatable=0;points=[[0,0.5],[1,0.5]];portConstraint=eastwest;rounded=0;shadow=0;html=0;fontFamily=Courier New;fontSize=10;" parent="zkfFHV4jXpPFQw0GAbJ--0" vertex="1"><mxGeometry y="30" width="480" height="20" as="geometry"/></mxCell><mxCell id="2sFI9Li3K3q5MDXTztL8-9" value="cs_without_innovation: float" style="text;align=left;verticalAlign=middle;spacingLeft=4;spacingRight=4;overflow=hidden;rotatable=0;points=[[0,0.5],[1,0.5]];portConstraint=eastwest;rounded=0;shadow=0;html=0;fontFamily=Courier New;fontSize=10;" parent="zkfFHV4jXpPFQw0GAbJ--0" vertex="1"><mxGeometry y="50" width="480" height="20" as="geometry"/></mxCell><mxCell id="2sFI9Li3K3q5MDXTztL8-2" value="cs_with_innovation: float" style="text;align=left;verticalAlign=middle;spacingLeft=4;spacingRight=4;overflow=hidden;rotatable=0;points=[[0,0.5],[1,0.5]];portConstraint=eastwest;rounded=0;shadow=0;html=0;fontFamily=Courier New;fontSize=10;" parent="zkfFHV4jXpPFQw0GAbJ--0" vertex="1"><mxGeometry y="70" width="480" height="20" as="geometry"/></mxCell><mxCell id="zkfFHV4jXpPFQw0GAbJ--2" value="development_costs: float" style="text;align=left;verticalAlign=middle;spacingLeft=4;spacingRight=4;overflow=hidden;rotatable=0;points=[[0,0.5],[1,0.5]];portConstraint=eastwest;rounded=0;shadow=0;html=0;fontFamily=Courier New;fontSize=10;" parent="zkfFHV4jXpPFQw0GAbJ--0" vertex="1"><mxGeometry y="90" width="480" height="20" as="geometry"/></mxCell><mxCell id="2sFI9Li3K3q5MDXTztL8-6" value="development_success: bool" style="text;align=left;verticalAlign=middle;spacingLeft=4;spacingRight=4;overflow=hidden;rotatable=0;points=[[0,0.5],[1,0.5]];portConstraint=eastwest;rounded=0;shadow=0;html=0;fontFamily=Courier New;fontSize=10;" parent="zkfFHV4jXpPFQw0GAbJ--0" vertex="1"><mxGeometry y="110" width="480" height="20" as="geometry"/></mxCell><mxCell id="2sFI9Li3K3q5MDXTztL8-11" value="incumbent_profit_duopoly: float" style="text;align=left;verticalAlign=middle;spacingLeft=4;spacingRight=4;overflow=hidden;rotatable=0;points=[[0,0.5],[1,0.5]];portConstraint=eastwest;rounded=0;shadow=0;html=0;fontFamily=Courier New;fontSize=10;" parent="zkfFHV4jXpPFQw0GAbJ--0" vertex="1"><mxGeometry y="130" width="480" height="20" as="geometry"/></mxCell><mxCell id="2sFI9Li3K3q5MDXTztL8-8" value="incumbent_profit_without_innovation: float" style="text;align=left;verticalAlign=middle;spacingLeft=4;spacingRight=4;overflow=hidden;rotatable=0;points=[[0,0.5],[1,0.5]];portConstraint=eastwest;rounded=0;shadow=0;html=0;fontFamily=Courier New;fontSize=10;" parent="zkfFHV4jXpPFQw0GAbJ--0" vertex="1"><mxGeometry y="150" width="480" height="20" as="geometry"/></mxCell><mxCell id="2sFI9Li3K3q5MDXTztL8-3" value="incumbent_profit_with_innovation: float" style="text;align=left;verticalAlign=middle;spacingLeft=4;spacingRight=4;overflow=hidden;rotatable=0;points=[[0,0.5],[1,0.5]];portConstraint=eastwest;rounded=0;shadow=0;html=0;fontFamily=Courier New;fontSize=10;" parent="zkfFHV4jXpPFQw0GAbJ--0" vertex="1"><mxGeometry y="170" width="480" height="20" as="geometry"/></mxCell><mxCell id="2sFI9Li3K3q5MDXTztL8-4" value="private_benefit: float" style="text;align=left;verticalAlign=middle;spacingLeft=4;spacingRight=4;overflow=hidden;rotatable=0;points=[[0,0.5],[1,0.5]];portConstraint=eastwest;rounded=0;shadow=0;html=0;fontFamily=Courier New;fontSize=10;" parent="zkfFHV4jXpPFQw0GAbJ--0" vertex="1"><mxGeometry y="190" width="480" height="20" as="geometry"/></mxCell><mxCell id="zkfFHV4jXpPFQw0GAbJ--3" value="startup_assets: float" style="text;align=left;verticalAlign=middle;spacingLeft=4;spacingRight=4;overflow=hidden;rotatable=0;points=[[0,0.5],[1,0.5]];portConstraint=eastwest;rounded=0;shadow=0;html=0;fontFamily=Courier New;fontSize=10;" parent="zkfFHV4jXpPFQw0GAbJ--0" vertex="1"><mxGeometry y="210" width="480" height="20" as="geometry"/></mxCell><mxCell id="2sFI9Li3K3q5MDXTztL8-14" value="startup_profit_duopoly: float" style="text;align=left;verticalAlign=middle;spacingLeft=4;spacingRight=4;overflow=hidden;rotatable=0;points=[[0,0.5],[1,0.5]];portConstraint=eastwest;rounded=0;shadow=0;html=0;fontFamily=Courier New;fontSize=10;" parent="zkfFHV4jXpPFQw0GAbJ--0" vertex="1"><mxGeometry y="230" width="480" height="20" as="geometry"/></mxCell><mxCell id="2sFI9Li3K3q5MDXTztL8-7" value="success_probability: float" style="text;align=left;verticalAlign=middle;spacingLeft=4;spacingRight=4;overflow=hidden;rotatable=0;points=[[0,0.5],[1,0.5]];portConstraint=eastwest;rounded=0;shadow=0;html=0;fontFamily=Courier New;fontSize=10;" parent="zkfFHV4jXpPFQw0GAbJ--0" vertex="1"><mxGeometry y="250" width="480" height="20" as="geometry"/></mxCell><mxCell id="zkfFHV4jXpPFQw0GAbJ--1" value="tolerated_harm: float" style="text;align=left;verticalAlign=middle;spacingLeft=4;spacingRight=4;overflow=hidden;rotatable=0;points=[[0,0.5],[1,0.5]];portConstraint=eastwest;fontFamily=Courier New;fontSize=10;" parent="zkfFHV4jXpPFQw0GAbJ--0" vertex="1"><mxGeometry y="270" width="480" height="20" as="geometry"/></mxCell><mxCell id="2sFI9Li3K3q5MDXTztL8-13" value="w_duopoly: float" style="text;align=left;verticalAlign=middle;spacingLeft=4;spacingRight=4;overflow=hidden;rotatable=0;points=[[0,0.5],[1,0.5]];portConstraint=eastwest;rounded=0;shadow=0;html=0;fontFamily=Courier New;fontSize=10;" parent="zkfFHV4jXpPFQw0GAbJ--0" vertex="1"><mxGeometry y="290" width="480" height="20" as="geometry"/></mxCell><mxCell id="2sFI9Li3K3q5MDXTztL8-1" value="w_with_innovation: float" style="text;align=left;verticalAlign=middle;spacingLeft=4;spacingRight=4;overflow=hidden;rotatable=0;points=[[0,0.5],[1,0.5]];portConstraint=eastwest;rounded=0;shadow=0;html=0;fontFamily=Courier New;fontSize=10;" parent="zkfFHV4jXpPFQw0GAbJ--0" vertex="1"><mxGeometry y="310" width="480" height="20" as="geometry"/></mxCell><mxCell id="2sFI9Li3K3q5MDXTztL8-10" value="w_without_innovation: float" style="text;align=left;verticalAlign=middle;spacingLeft=4;spacingRight=4;overflow=hidden;rotatable=0;points=[[0,0.5],[1,0.5]];portConstraint=eastwest;rounded=0;shadow=0;html=0;fontFamily=Courier New;fontSize=10;" parent="zkfFHV4jXpPFQw0GAbJ--0" vertex="1"><mxGeometry y="330" width="480" height="20" as="geometry"/></mxCell><mxCell id="zkfFHV4jXpPFQw0GAbJ--4" value="" style="line;html=1;strokeWidth=1;align=left;verticalAlign=middle;spacingTop=-1;spacingLeft=3;spacingRight=3;rotatable=0;labelPosition=right;points=[];portConstraint=eastwest;fontFamily=Courier New;fontSize=10;" parent="zkfFHV4jXpPFQw0GAbJ--0" vertex="1"><mxGeometry y="350" width="480" height="10" as="geometry"/></mxCell><mxCell id="2sFI9Li3K3q5MDXTztL8-33" style="edgeStyle=orthogonalEdgeStyle;rounded=0;orthogonalLoop=1;jettySize=auto;html=1;exitX=0.5;exitY=0;exitDx=0;exitDy=0;entryX=0.5;entryY=1;entryDx=0;entryDy=0;endArrow=block;endFill=0;fontFamily=Courier New;fontSize=10;" parent="WIyWlLk6GJQsqaUBKTNV-1" source="2sFI9Li3K3q5MDXTztL8-15" target="zkfFHV4jXpPFQw0GAbJ--0" edge="1"><mxGeometry relative="1" as="geometry"/></mxCell><mxCell id="2sFI9Li3K3q5MDXTztL8-15" value="MergerPolicyModel" style="swimlane;fontStyle=2;align=center;verticalAlign=top;childLayout=stackLayout;horizontal=1;startSize=30;horizontalStack=0;resizeParent=1;resizeLast=0;collapsible=1;marginBottom=0;rounded=0;shadow=0;strokeWidth=1;fontFamily=Courier New;fontSize=10;" parent="WIyWlLk6GJQsqaUBKTNV-1" vertex="1"><mxGeometry x="80" y="560" width="480" height="420" as="geometry"><mxRectangle x="230" y="140" width="160" height="26" as="alternateBounds"/></mxGeometry></mxCell><mxCell id="2sFI9Li3K3q5MDXTztL8-16" value="asset_distribution_threshold: float" style="text;align=left;verticalAlign=middle;spacingLeft=4;spacingRight=4;overflow=hidden;rotatable=0;points=[[0,0.5],[1,0.5]];portConstraint=eastwest;rounded=0;shadow=0;html=0;fontFamily=Courier New;fontSize=10;" parent="2sFI9Li3K3q5MDXTztL8-15" vertex="1"><mxGeometry y="30" width="480" height="20" as="geometry"/></mxCell><mxCell id="2sFI9Li3K3q5MDXTztL8-17" value="asset_distribution_threshold_intermediate: float" style="text;align=left;verticalAlign=middle;spacingLeft=4;spacingRight=4;overflow=hidden;rotatable=0;points=[[0,0.5],[1,0.5]];portConstraint=eastwest;rounded=0;shadow=0;html=0;fontFamily=Courier New;fontSize=10;" parent="2sFI9Li3K3q5MDXTztL8-15" vertex="1"><mxGeometry y="50" width="480" height="20" as="geometry"/></mxCell><mxCell id="2sFI9Li3K3q5MDXTztL8-18" value="asset_distribution_threshold_laissez_faire: float" style="text;align=left;verticalAlign=middle;spacingLeft=4;spacingRight=4;overflow=hidden;rotatable=0;points=[[0,0.5],[1,0.5]];portConstraint=eastwest;rounded=0;shadow=0;html=0;fontFamily=Courier New;fontSize=10;" parent="2sFI9Li3K3q5MDXTztL8-15" vertex="1"><mxGeometry y="70" width="480" height="20" as="geometry"/></mxCell><mxCell id="2sFI9Li3K3q5MDXTztL8-19" value="asset_distribution_threshold_strict: float" style="text;align=left;verticalAlign=middle;spacingLeft=4;spacingRight=4;overflow=hidden;rotatable=0;points=[[0,0.5],[1,0.5]];portConstraint=eastwest;rounded=0;shadow=0;html=0;fontFamily=Courier New;fontSize=10;" parent="2sFI9Li3K3q5MDXTztL8-15" vertex="1"><mxGeometry y="90" width="480" height="20" as="geometry"/></mxCell><mxCell id="2sFI9Li3K3q5MDXTztL8-20" value="asset_threshold: float" style="text;align=left;verticalAlign=middle;spacingLeft=4;spacingRight=4;overflow=hidden;rotatable=0;points=[[0,0.5],[1,0.5]];portConstraint=eastwest;rounded=0;shadow=0;html=0;fontFamily=Courier New;fontSize=10;" parent="2sFI9Li3K3q5MDXTztL8-15" vertex="1"><mxGeometry y="110" width="480" height="20" as="geometry"/></mxCell><mxCell id="2sFI9Li3K3q5MDXTztL8-21" value="asset_threshold_cdf: float" style="text;align=left;verticalAlign=middle;spacingLeft=4;spacingRight=4;overflow=hidden;rotatable=0;points=[[0,0.5],[1,0.5]];portConstraint=eastwest;rounded=0;shadow=0;html=0;fontFamily=Courier New;fontSize=10;" parent="2sFI9Li3K3q5MDXTztL8-15" vertex="1"><mxGeometry y="130" width="480" height="20" as="geometry"/></mxCell><mxCell id="2sFI9Li3K3q5MDXTztL8-22" value="asset_threshold_late_takeover: float" style="text;align=left;verticalAlign=middle;spacingLeft=4;spacingRight=4;overflow=hidden;rotatable=0;points=[[0,0.5],[1,0.5]];portConstraint=eastwest;rounded=0;shadow=0;html=0;fontFamily=Courier New;fontSize=10;" parent="2sFI9Li3K3q5MDXTztL8-15" vertex="1"><mxGeometry y="150" width="480" height="20" as="geometry"/></mxCell><mxCell id="2sFI9Li3K3q5MDXTztL8-23" value="asset_threshold_late_takeover_cdf: float" style="text;align=left;verticalAlign=middle;spacingLeft=4;spacingRight=4;overflow=hidden;rotatable=0;points=[[0,0.5],[1,0.5]];portConstraint=eastwest;rounded=0;shadow=0;html=0;fontFamily=Courier New;fontSize=10;" parent="2sFI9Li3K3q5MDXTztL8-15" vertex="1"><mxGeometry y="170" width="480" height="20" as="geometry"/></mxCell><mxCell id="2sFI9Li3K3q5MDXTztL8-24" value="get_early_bidding_type: Takeover" style="text;align=left;verticalAlign=middle;spacingLeft=4;spacingRight=4;overflow=hidden;rotatable=0;points=[[0,0.5],[1,0.5]];portConstraint=eastwest;rounded=0;shadow=0;html=0;fontFamily=Courier New;fontSize=10;" parent="2sFI9Li3K3q5MDXTztL8-15" vertex="1"><mxGeometry y="190" width="480" height="20" as="geometry"/></mxCell><mxCell id="2sFI9Li3K3q5MDXTztL8-25" value="get_late_bidding_type: Takeover" style="text;align=left;verticalAlign=middle;spacingLeft=4;spacingRight=4;overflow=hidden;rotatable=0;points=[[0,0.5],[1,0.5]];portConstraint=eastwest;rounded=0;shadow=0;html=0;fontFamily=Courier New;fontSize=10;" parent="2sFI9Li3K3q5MDXTztL8-15" vertex="1"><mxGeometry y="210" width="480" height="20" as="geometry"/></mxCell><mxCell id="2sFI9Li3K3q5MDXTztL8-26" value="is_development_successful: bool" style="text;align=left;verticalAlign=middle;spacingLeft=4;spacingRight=4;overflow=hidden;rotatable=0;points=[[0,0.5],[1,0.5]];portConstraint=eastwest;rounded=0;shadow=0;html=0;fontFamily=Courier New;fontSize=10;" parent="2sFI9Li3K3q5MDXTztL8-15" vertex="1"><mxGeometry y="230" width="480" height="20" as="geometry"/></mxCell><mxCell id="2sFI9Li3K3q5MDXTztL8-27" value="is_early_takeover: bool" style="text;align=left;verticalAlign=middle;spacingLeft=4;spacingRight=4;overflow=hidden;rotatable=0;points=[[0,0.5],[1,0.5]];portConstraint=eastwest;rounded=0;shadow=0;html=0;fontFamily=Courier New;fontSize=10;" parent="2sFI9Li3K3q5MDXTztL8-15" vertex="1"><mxGeometry y="250" width="480" height="20" as="geometry"/></mxCell><mxCell id="2sFI9Li3K3q5MDXTztL8-28" value="is_late_takeover: bool" style="text;align=left;verticalAlign=middle;spacingLeft=4;spacingRight=4;overflow=hidden;rotatable=0;points=[[0,0.5],[1,0.5]];portConstraint=eastwest;fontFamily=Courier New;fontSize=10;" parent="2sFI9Li3K3q5MDXTztL8-15" vertex="1"><mxGeometry y="270" width="480" height="20" as="geometry"/></mxCell><mxCell id="2sFI9Li3K3q5MDXTztL8-29" value="is_owner_investing: bool" style="text;align=left;verticalAlign=middle;spacingLeft=4;spacingRight=4;overflow=hidden;rotatable=0;points=[[0,0.5],[1,0.5]];portConstraint=eastwest;rounded=0;shadow=0;html=0;fontFamily=Courier New;fontSize=10;" parent="2sFI9Li3K3q5MDXTztL8-15" vertex="1"><mxGeometry y="290" width="480" height="20" as="geometry"/></mxCell><mxCell id="2sFI9Li3K3q5MDXTztL8-30" value="is_startup_credit_rationed: bool" style="text;align=left;verticalAlign=middle;spacingLeft=4;spacingRight=4;overflow=hidden;rotatable=0;points=[[0,0.5],[1,0.5]];portConstraint=eastwest;rounded=0;shadow=0;html=0;fontFamily=Courier New;fontSize=10;" parent="2sFI9Li3K3q5MDXTztL8-15" vertex="1"><mxGeometry y="310" width="480" height="20" as="geometry"/></mxCell><mxCell id="2sFI9Li3K3q5MDXTztL8-31" value="merger_policy: MergerPolicies" style="text;align=left;verticalAlign=middle;spacingLeft=4;spacingRight=4;overflow=hidden;rotatable=0;points=[[0,0.5],[1,0.5]];portConstraint=eastwest;rounded=0;shadow=0;html=0;fontFamily=Courier New;fontSize=10;" parent="2sFI9Li3K3q5MDXTztL8-15" vertex="1"><mxGeometry y="330" width="480" height="20" as="geometry"/></mxCell><mxCell id="2sFI9Li3K3q5MDXTztL8-32" value="" style="line;html=1;strokeWidth=1;align=left;verticalAlign=middle;spacingTop=-1;spacingLeft=3;spacingRight=3;rotatable=0;labelPosition=right;points=[];portConstraint=eastwest;fontFamily=Courier New;fontSize=10;" parent="2sFI9Li3K3q5MDXTztL8-15" vertex="1"><mxGeometry y="350" width="480" height="10" as="geometry"/></mxCell><mxCell id="2sFI9Li3K3q5MDXTztL8-34" value="incumbent_expected_additional_profit_from_innovation(): float" style="text;align=left;verticalAlign=middle;spacingLeft=4;spacingRight=4;overflow=hidden;rotatable=0;points=[[0,0.5],[1,0.5]];portConstraint=eastwest;rounded=0;shadow=0;html=0;fontFamily=Courier New;fontSize=10;" parent="2sFI9Li3K3q5MDXTztL8-15" vertex="1"><mxGeometry y="360" width="480" height="20" as="geometry"/></mxCell><mxCell id="2sFI9Li3K3q5MDXTztL8-35" value="is_incumbent_expected_to_shelve(): bool" style="text;align=left;verticalAlign=middle;spacingLeft=4;spacingRight=4;overflow=hidden;rotatable=0;points=[[0,0.5],[1,0.5]];portConstraint=eastwest;rounded=0;shadow=0;html=0;fontFamily=Courier New;fontSize=10;" parent="2sFI9Li3K3q5MDXTztL8-15" vertex="1"><mxGeometry y="380" width="480" height="20" as="geometry"/></mxCell><mxCell id="2sFI9Li3K3q5MDXTztL8-36" value="summary(): Summary" style="text;align=left;verticalAlign=middle;spacingLeft=4;spacingRight=4;overflow=hidden;rotatable=0;points=[[0,0.5],[1,0.5]];portConstraint=eastwest;rounded=0;shadow=0;html=0;fontFamily=Courier New;fontSize=10;" parent="2sFI9Li3K3q5MDXTztL8-15" vertex="1"><mxGeometry y="400" width="480" height="20" as="geometry"/></mxCell><mxCell id="2sFI9Li3K3q5MDXTztL8-58" style="edgeStyle=orthogonalEdgeStyle;rounded=0;orthogonalLoop=1;jettySize=auto;html=1;exitX=0.5;exitY=0;exitDx=0;exitDy=0;entryX=0.5;entryY=1;entryDx=0;entryDy=0;entryPerimeter=0;fontFamily=Courier New;fontSize=10;endArrow=block;endFill=0;" parent="WIyWlLk6GJQsqaUBKTNV-1" source="2sFI9Li3K3q5MDXTztL8-37" target="2sFI9Li3K3q5MDXTztL8-36" edge="1"><mxGeometry relative="1" as="geometry"/></mxCell><mxCell id="2sFI9Li3K3q5MDXTztL8-37" value="OptimalMergerPolicyModel" style="swimlane;fontStyle=2;align=center;verticalAlign=top;childLayout=stackLayout;horizontal=1;startSize=30;horizontalStack=0;resizeParent=1;resizeLast=0;collapsible=1;marginBottom=0;rounded=0;shadow=0;strokeWidth=1;fontFamily=Courier New;fontSize=10;" parent="WIyWlLk6GJQsqaUBKTNV-1" vertex="1"><mxGeometry x="80" y="1060" width="480" height="180" as="geometry"><mxRectangle x="230" y="140" width="160" height="26" as="alternateBounds"/></mxGeometry></mxCell><mxCell id="2sFI9Li3K3q5MDXTztL8-38" value="asset_distribution_threshold_intermediate_approval_despite_shelving: float" style="text;align=left;verticalAlign=middle;spacingLeft=4;spacingRight=4;overflow=hidden;rotatable=0;points=[[0,0.5],[1,0.5]];portConstraint=eastwest;rounded=0;shadow=0;html=0;fontFamily=Courier New;fontSize=10;" parent="2sFI9Li3K3q5MDXTztL8-37" vertex="1"><mxGeometry y="30" width="480" height="20" as="geometry"/></mxCell><mxCell id="2sFI9Li3K3q5MDXTztL8-54" value="" style="line;html=1;strokeWidth=1;align=left;verticalAlign=middle;spacingTop=-1;spacingLeft=3;spacingRight=3;rotatable=0;labelPosition=right;points=[];portConstraint=eastwest;fontFamily=Courier New;fontSize=10;" parent="2sFI9Li3K3q5MDXTztL8-37" vertex="1"><mxGeometry y="50" width="480" height="10" as="geometry"/></mxCell><mxCell id="2sFI9Li3K3q5MDXTztL8-55" value="get_optimal_merger_policy(): MergerPolicies" style="text;align=left;verticalAlign=middle;spacingLeft=4;spacingRight=4;overflow=hidden;rotatable=0;points=[[0,0.5],[1,0.5]];portConstraint=eastwest;rounded=0;shadow=0;html=0;fontFamily=Courier New;fontSize=10;" parent="2sFI9Li3K3q5MDXTztL8-37" vertex="1"><mxGeometry y="60" width="480" height="20" as="geometry"/></mxCell><mxCell id="2sFI9Li3K3q5MDXTztL8-63" value="is_financial_imperfection_severe(): bool" style="text;align=left;verticalAlign=middle;spacingLeft=4;spacingRight=4;overflow=hidden;rotatable=0;points=[[0,0.5],[1,0.5]];portConstraint=eastwest;rounded=0;shadow=0;html=0;fontFamily=Courier New;fontSize=10;" parent="2sFI9Li3K3q5MDXTztL8-37" vertex="1"><mxGeometry y="80" width="480" height="20" as="geometry"/></mxCell><mxCell id="2sFI9Li3K3q5MDXTztL8-61" value="is_intermediate_optimal(): bool" style="text;align=left;verticalAlign=middle;spacingLeft=4;spacingRight=4;overflow=hidden;rotatable=0;points=[[0,0.5],[1,0.5]];portConstraint=eastwest;rounded=0;shadow=0;html=0;fontFamily=Courier New;fontSize=10;" parent="2sFI9Li3K3q5MDXTztL8-37" vertex="1"><mxGeometry y="100" width="480" height="20" as="geometry"/></mxCell><mxCell id="2sFI9Li3K3q5MDXTztL8-60" value="is_laissez_faire_optimal(): bool" style="text;align=left;verticalAlign=middle;spacingLeft=4;spacingRight=4;overflow=hidden;rotatable=0;points=[[0,0.5],[1,0.5]];portConstraint=eastwest;rounded=0;shadow=0;html=0;fontFamily=Courier New;fontSize=10;" parent="2sFI9Li3K3q5MDXTztL8-37" vertex="1"><mxGeometry y="120" width="480" height="20" as="geometry"/></mxCell><mxCell id="2sFI9Li3K3q5MDXTztL8-56" value="is_shelving_after_early_takeover_optimal(): bool" style="text;align=left;verticalAlign=middle;spacingLeft=4;spacingRight=4;overflow=hidden;rotatable=0;points=[[0,0.5],[1,0.5]];portConstraint=eastwest;rounded=0;shadow=0;html=0;fontFamily=Courier New;fontSize=10;" parent="2sFI9Li3K3q5MDXTztL8-37" vertex="1"><mxGeometry y="140" width="480" height="20" as="geometry"/></mxCell><mxCell id="2sFI9Li3K3q5MDXTztL8-65" value="is_strict_optimal(): bool" style="text;align=left;verticalAlign=middle;spacingLeft=4;spacingRight=4;overflow=hidden;rotatable=0;points=[[0,0.5],[1,0.5]];portConstraint=eastwest;rounded=0;shadow=0;html=0;fontFamily=Courier New;fontSize=10;" parent="2sFI9Li3K3q5MDXTztL8-37" vertex="1"><mxGeometry y="160" width="480" height="20" as="geometry"/></mxCell><mxCell id="11" style="edgeStyle=orthogonalEdgeStyle;rounded=0;orthogonalLoop=1;jettySize=auto;html=1;exitX=0.5;exitY=0;exitDx=0;exitDy=0;entryX=0.5;entryY=1;entryDx=0;entryDy=0;entryPerimeter=0;endArrow=block;endFill=0;" parent="WIyWlLk6GJQsqaUBKTNV-1" source="0" target="2sFI9Li3K3q5MDXTztL8-65" edge="1"><mxGeometry relative="1" as="geometry"><mxPoint x="330" y="1320" as="targetPoint"/></mxGeometry></mxCell><mxCell id="0" value="MicroFoundationModel" style="swimlane;fontStyle=2;align=center;verticalAlign=top;childLayout=stackLayout;horizontal=1;startSize=30;horizontalStack=0;resizeParent=1;resizeLast=0;collapsible=1;marginBottom=0;rounded=0;shadow=0;strokeWidth=1;fontFamily=Courier New;fontSize=10;" parent="WIyWlLk6GJQsqaUBKTNV-1" vertex="1"><mxGeometry x="80" y="1320" width="220" height="40" as="geometry"><mxRectangle x="230" y="140" width="160" height="26" as="alternateBounds"/></mxGeometry></mxCell><mxCell id="2" value="" style="line;html=1;strokeWidth=1;align=left;verticalAlign=middle;spacingTop=-1;spacingLeft=3;spacingRight=3;rotatable=0;labelPosition=right;points=[];portConstraint=eastwest;fontFamily=Courier New;fontSize=10;" parent="0" vertex="1"><mxGeometry y="30" width="220" height="10" as="geometry"/></mxCell><mxCell id="12" style="edgeStyle=orthogonalEdgeStyle;rounded=0;orthogonalLoop=1;jettySize=auto;html=1;exitX=0.5;exitY=0;exitDx=0;exitDy=0;endArrow=block;endFill=0;" parent="WIyWlLk6GJQsqaUBKTNV-1" source="9" edge="1"><mxGeometry relative="1" as="geometry"><mxPoint x="320" y="1240" as="targetPoint"/></mxGeometry></mxCell><mxCell id="9" value="PerfectInformationModel" style="swimlane;fontStyle=2;align=center;verticalAlign=top;childLayout=stackLayout;horizontal=1;startSize=30;horizontalStack=0;resizeParent=1;resizeLast=0;collapsible=1;marginBottom=0;rounded=0;shadow=0;strokeWidth=1;fontFamily=Courier New;fontSize=10;" parent="WIyWlLk6GJQsqaUBKTNV-1" vertex="1"><mxGeometry x="340" y="1320" width="220" height="40" as="geometry"><mxRectangle x="230" y="140" width="160" height="26" as="alternateBounds"/></mxGeometry></mxCell><mxCell id="10" value="" style="line;html=1;strokeWidth=1;align=left;verticalAlign=middle;spacingTop=-1;spacingLeft=3;spacingRight=3;rotatable=0;labelPosition=right;points=[];portConstraint=eastwest;fontFamily=Courier New;fontSize=10;" parent="9" vertex="1"><mxGeometry y="30" width="220" height="10" as="geometry"/></mxCell><mxCell id="15" value="IVisualize" style="swimlane;fontStyle=2;align=center;verticalAlign=top;childLayout=stackLayout;horizontal=1;startSize=30;horizontalStack=0;resizeParent=1;resizeLast=0;collapsible=1;marginBottom=0;rounded=0;shadow=0;strokeWidth=1;fontFamily=Courier New;fontSize=10;" parent="WIyWlLk6GJQsqaUBKTNV-1" vertex="1"><mxGeometry x="1200" y="120" width="480" height="140" as="geometry"><mxRectangle x="230" y="140" width="160" height="26" as="alternateBounds"/></mxGeometry></mxCell><mxCell id="16" value="colors: list(str)" style="text;align=left;verticalAlign=middle;spacingLeft=4;spacingRight=4;overflow=hidden;rotatable=0;points=[[0,0.5],[1,0.5]];portConstraint=eastwest;rounded=0;shadow=0;html=0;fontFamily=Courier New;fontSize=10;" parent="15" vertex="1"><mxGeometry y="30" width="480" height="20" as="geometry"/></mxCell><mxCell id="28" value="model: OptimalMergerPolicy" style="text;align=left;verticalAlign=middle;spacingLeft=4;spacingRight=4;overflow=hidden;rotatable=0;points=[[0,0.5],[1,0.5]];portConstraint=eastwest;rounded=0;shadow=0;html=0;fontFamily=Courier New;fontSize=10;" parent="15" vertex="1"><mxGeometry y="50" width="480" height="20" as="geometry"/></mxCell><mxCell id="29" value="fig: matplotlib.pyplot.Figure" style="text;align=left;verticalAlign=middle;spacingLeft=4;spacingRight=4;overflow=hidden;rotatable=0;points=[[0,0.5],[1,0.5]];portConstraint=eastwest;rounded=0;shadow=0;html=0;fontFamily=Courier New;fontSize=10;" parent="15" vertex="1"><mxGeometry y="70" width="480" height="20" as="geometry"/></mxCell><mxCell id="30" value="ax: matplotlib.pyplot.Axes" style="text;align=left;verticalAlign=middle;spacingLeft=4;spacingRight=4;overflow=hidden;rotatable=0;points=[[0,0.5],[1,0.5]];portConstraint=eastwest;rounded=0;shadow=0;html=0;fontFamily=Courier New;fontSize=10;" parent="15" vertex="1"><mxGeometry y="90" width="480" height="20" as="geometry"/></mxCell><mxCell id="17" value="" style="line;html=1;strokeWidth=1;align=left;verticalAlign=middle;spacingTop=-1;spacingLeft=3;spacingRight=3;rotatable=0;labelPosition=right;points=[];portConstraint=eastwest;fontFamily=Courier New;fontSize=10;" parent="15" vertex="1"><mxGeometry y="110" width="480" height="10" as="geometry"/></mxCell><mxCell id="23" value="plot(): (matplotlib.pyplot.Figure, matplotlib.pyplot.Axes)" style="text;align=left;verticalAlign=middle;spacingLeft=4;spacingRight=4;overflow=hidden;rotatable=0;points=[[0,0.5],[1,0.5]];portConstraint=eastwest;rounded=0;shadow=0;html=0;fontFamily=Courier New;fontSize=10;" parent="15" vertex="1"><mxGeometry y="120" width="480" height="20" as="geometry"/></mxCell><mxCell id="31" style="edgeStyle=orthogonalEdgeStyle;rounded=0;orthogonalLoop=1;jettySize=auto;html=1;exitX=0;exitY=0.5;exitDx=0;exitDy=0;entryX=1;entryY=0.5;entryDx=0;entryDy=0;endArrow=none;endFill=0;startArrow=diamondThin;startFill=0;" parent="WIyWlLk6GJQsqaUBKTNV-1" source="16" target="2sFI9Li3K3q5MDXTztL8-38" edge="1"><mxGeometry relative="1" as="geometry"><Array as="points"><mxPoint x="1160" y="160"/><mxPoint x="1160" y="1100"/></Array></mxGeometry></mxCell><mxCell id="33" style="edgeStyle=orthogonalEdgeStyle;rounded=0;orthogonalLoop=1;jettySize=auto;html=1;exitX=0.5;exitY=0;exitDx=0;exitDy=0;entryX=0.5;entryY=1;entryDx=0;entryDy=0;entryPerimeter=0;endArrow=block;endFill=0;" parent="WIyWlLk6GJQsqaUBKTNV-1" source="34" edge="1"><mxGeometry relative="1" as="geometry"><mxPoint x="1440" y="260" as="targetPoint"/></mxGeometry></mxCell><mxCell id="34" value="AssetRange" style="swimlane;fontStyle=2;align=center;verticalAlign=top;childLayout=stackLayout;horizontal=1;startSize=30;horizontalStack=0;resizeParent=1;resizeLast=0;collapsible=1;marginBottom=0;rounded=0;shadow=0;strokeWidth=1;fontFamily=Courier New;fontSize=10;" parent="WIyWlLk6GJQsqaUBKTNV-1" vertex="1"><mxGeometry x="1200" y="340" width="120" height="40" as="geometry"><mxRectangle x="230" y="140" width="160" height="26" as="alternateBounds"/></mxGeometry></mxCell><mxCell id="35" value="" style="line;html=1;strokeWidth=1;align=left;verticalAlign=middle;spacingTop=-1;spacingLeft=3;spacingRight=3;rotatable=0;labelPosition=right;points=[];portConstraint=eastwest;fontFamily=Courier New;fontSize=10;" parent="34" vertex="1"><mxGeometry y="30" width="120" height="10" as="geometry"/></mxCell><mxCell id="36" style="edgeStyle=orthogonalEdgeStyle;rounded=0;orthogonalLoop=1;jettySize=auto;html=1;exitX=0.5;exitY=0;exitDx=0;exitDy=0;endArrow=block;endFill=0;" parent="WIyWlLk6GJQsqaUBKTNV-1" source="37" edge="1"><mxGeometry relative="1" as="geometry"><mxPoint x="1440" y="260" as="targetPoint"/></mxGeometry></mxCell><mxCell id="37" value="Timeline" style="swimlane;fontStyle=2;align=center;verticalAlign=top;childLayout=stackLayout;horizontal=1;startSize=30;horizontalStack=0;resizeParent=1;resizeLast=0;collapsible=1;marginBottom=0;rounded=0;shadow=0;strokeWidth=1;fontFamily=Courier New;fontSize=10;" parent="WIyWlLk6GJQsqaUBKTNV-1" vertex="1"><mxGeometry x="1560" y="340" width="120" height="40" as="geometry"><mxRectangle x="230" y="140" width="160" height="26" as="alternateBounds"/></mxGeometry></mxCell><mxCell id="38" value="" style="line;html=1;strokeWidth=1;align=left;verticalAlign=middle;spacingTop=-1;spacingLeft=3;spacingRight=3;rotatable=0;labelPosition=right;points=[];portConstraint=eastwest;fontFamily=Courier New;fontSize=10;" parent="37" vertex="1"><mxGeometry y="30" width="120" height="10" as="geometry"/></mxCell><mxCell id="39" value="&lt;&lt;Enum&gt;&gt;&#10;MergerPolicies" style="swimlane;fontStyle=2;align=center;verticalAlign=top;childLayout=stackLayout;horizontal=1;startSize=30;horizontalStack=0;resizeParent=1;resizeLast=0;collapsible=1;marginBottom=0;rounded=0;shadow=0;strokeWidth=1;fontFamily=Courier New;fontSize=10;" parent="WIyWlLk6GJQsqaUBKTNV-1" vertex="1"><mxGeometry x="640" y="540" width="480" height="160" as="geometry"><mxRectangle x="230" y="140" width="160" height="26" as="alternateBounds"/></mxGeometry></mxCell><mxCell id="40" value="Strict" style="text;align=left;verticalAlign=middle;spacingLeft=4;spacingRight=4;overflow=hidden;rotatable=0;points=[[0,0.5],[1,0.5]];portConstraint=eastwest;rounded=0;shadow=0;html=0;fontFamily=Courier New;fontSize=10;" parent="39" vertex="1"><mxGeometry y="30" width="480" height="20" as="geometry"/></mxCell><mxCell id="41" value="Intermediate_late_takeover_allowed" style="text;align=left;verticalAlign=middle;spacingLeft=4;spacingRight=4;overflow=hidden;rotatable=0;points=[[0,0.5],[1,0.5]];portConstraint=eastwest;rounded=0;shadow=0;html=0;fontFamily=Courier New;fontSize=10;" parent="39" vertex="1"><mxGeometry y="50" width="480" height="20" as="geometry"/></mxCell><mxCell id="42" value="Intermediate_late_takeover_prohibited" style="text;align=left;verticalAlign=middle;spacingLeft=4;spacingRight=4;overflow=hidden;rotatable=0;points=[[0,0.5],[1,0.5]];portConstraint=eastwest;rounded=0;shadow=0;html=0;fontFamily=Courier New;fontSize=10;" parent="39" vertex="1"><mxGeometry y="70" width="480" height="20" as="geometry"/></mxCell><mxCell id="43" value="Laissez_faire" style="text;align=left;verticalAlign=middle;spacingLeft=4;spacingRight=4;overflow=hidden;rotatable=0;points=[[0,0.5],[1,0.5]];portConstraint=eastwest;rounded=0;shadow=0;html=0;fontFamily=Courier New;fontSize=10;" parent="39" vertex="1"><mxGeometry y="90" width="480" height="20" as="geometry"/></mxCell><mxCell id="56" value="" style="line;html=1;strokeWidth=1;align=left;verticalAlign=middle;spacingTop=-1;spacingLeft=3;spacingRight=3;rotatable=0;labelPosition=right;points=[];portConstraint=eastwest;fontFamily=Courier New;fontSize=10;" parent="39" vertex="1"><mxGeometry y="110" width="480" height="10" as="geometry"/></mxCell><mxCell id="57" value="abbreviation(): str" style="text;align=left;verticalAlign=middle;spacingLeft=4;spacingRight=4;overflow=hidden;rotatable=0;points=[[0,0.5],[1,0.5]];portConstraint=eastwest;rounded=0;shadow=0;html=0;fontFamily=Courier New;fontSize=10;" vertex="1" parent="39"><mxGeometry y="120" width="480" height="20" as="geometry"/></mxCell><mxCell id="58" value="legend(): str" style="text;align=left;verticalAlign=middle;spacingLeft=4;spacingRight=4;overflow=hidden;rotatable=0;points=[[0,0.5],[1,0.5]];portConstraint=eastwest;rounded=0;shadow=0;html=0;fontFamily=Courier New;fontSize=10;" vertex="1" parent="39"><mxGeometry y="140" width="480" height="20" as="geometry"/></mxCell><mxCell id="59" value="&lt;&lt;Enum&gt;&gt;&#10;Takeover" style="swimlane;fontStyle=2;align=center;verticalAlign=top;childLayout=stackLayout;horizontal=1;startSize=30;horizontalStack=0;resizeParent=1;resizeLast=0;collapsible=1;marginBottom=0;rounded=0;shadow=0;strokeWidth=1;fontFamily=Courier New;fontSize=10;" vertex="1" parent="WIyWlLk6GJQsqaUBKTNV-1"><mxGeometry x="640" y="780" width="480" height="140" as="geometry"><mxRectangle x="230" y="140" width="160" height="26" as="alternateBounds"/></mxGeometry></mxCell><mxCell id="60" value="No" style="text;align=left;verticalAlign=middle;spacingLeft=4;spacingRight=4;overflow=hidden;rotatable=0;points=[[0,0.5],[1,0.5]];portConstraint=eastwest;rounded=0;shadow=0;html=0;fontFamily=Courier New;fontSize=10;" vertex="1" parent="59"><mxGeometry y="30" width="480" height="20" as="geometry"/></mxCell><mxCell id="61" value="Separating" style="text;align=left;verticalAlign=middle;spacingLeft=4;spacingRight=4;overflow=hidden;rotatable=0;points=[[0,0.5],[1,0.5]];portConstraint=eastwest;rounded=0;shadow=0;html=0;fontFamily=Courier New;fontSize=10;" vertex="1" parent="59"><mxGeometry y="50" width="480" height="20" as="geometry"/></mxCell><mxCell id="62" value="Pooling" style="text;align=left;verticalAlign=middle;spacingLeft=4;spacingRight=4;overflow=hidden;rotatable=0;points=[[0,0.5],[1,0.5]];portConstraint=eastwest;rounded=0;shadow=0;html=0;fontFamily=Courier New;fontSize=10;" vertex="1" parent="59"><mxGeometry y="70" width="480" height="20" as="geometry"/></mxCell><mxCell id="64" value="" style="line;html=1;strokeWidth=1;align=left;verticalAlign=middle;spacingTop=-1;spacingLeft=3;spacingRight=3;rotatable=0;labelPosition=right;points=[];portConstraint=eastwest;fontFamily=Courier New;fontSize=10;" vertex="1" parent="59"><mxGeometry y="90" width="480" height="10" as="geometry"/></mxCell><mxCell id="65" value="abbreviation(): str" style="text;align=left;verticalAlign=middle;spacingLeft=4;spacingRight=4;overflow=hidden;rotatable=0;points=[[0,0.5],[1,0.5]];portConstraint=eastwest;rounded=0;shadow=0;html=0;fontFamily=Courier New;fontSize=10;" vertex="1" parent="59"><mxGeometry y="100" width="480" height="20" as="geometry"/></mxCell><mxCell id="66" value="legend(): str" style="text;align=left;verticalAlign=middle;spacingLeft=4;spacingRight=4;overflow=hidden;rotatable=0;points=[[0,0.5],[1,0.5]];portConstraint=eastwest;rounded=0;shadow=0;html=0;fontFamily=Courier New;fontSize=10;" vertex="1" parent="59"><mxGeometry y="120" width="480" height="20" as="geometry"/></mxCell><mxCell id="67" value="Summary" style="swimlane;fontStyle=2;align=center;verticalAlign=top;childLayout=stackLayout;horizontal=1;startSize=30;horizontalStack=0;resizeParent=1;resizeLast=0;collapsible=1;marginBottom=0;rounded=0;shadow=0;strokeWidth=1;fontFamily=Courier New;fontSize=10;" vertex="1" parent="WIyWlLk6GJQsqaUBKTNV-1"><mxGeometry x="640" y="120" width="480" height="200" as="geometry"><mxRectangle x="230" y="140" width="160" height="26" as="alternateBounds"/></mxGeometry></mxCell><mxCell id="68" value="set_policy: MergerPolicies" style="text;align=left;verticalAlign=middle;spacingLeft=4;spacingRight=4;overflow=hidden;rotatable=0;points=[[0,0.5],[1,0.5]];portConstraint=eastwest;rounded=0;shadow=0;html=0;fontFamily=Courier New;fontSize=10;" vertex="1" parent="67"><mxGeometry y="30" width="480" height="20" as="geometry"/></mxCell><mxCell id="69" value="credit_rationed: bool" style="text;align=left;verticalAlign=middle;spacingLeft=4;spacingRight=4;overflow=hidden;rotatable=0;points=[[0,0.5],[1,0.5]];portConstraint=eastwest;rounded=0;shadow=0;html=0;fontFamily=Courier New;fontSize=10;" vertex="1" parent="67"><mxGeometry y="50" width="480" height="20" as="geometry"/></mxCell><mxCell id="70" value="early_bidding_type: Takeover" style="text;align=left;verticalAlign=middle;spacingLeft=4;spacingRight=4;overflow=hidden;rotatable=0;points=[[0,0.5],[1,0.5]];portConstraint=eastwest;rounded=0;shadow=0;html=0;fontFamily=Courier New;fontSize=10;" vertex="1" parent="67"><mxGeometry y="70" width="480" height="20" as="geometry"/></mxCell><mxCell id="74" value="late_bidding_type: Takeover" style="text;align=left;verticalAlign=middle;spacingLeft=4;spacingRight=4;overflow=hidden;rotatable=0;points=[[0,0.5],[1,0.5]];portConstraint=eastwest;rounded=0;shadow=0;html=0;fontFamily=Courier New;fontSize=10;" vertex="1" parent="67"><mxGeometry y="90" width="480" height="20" as="geometry"/></mxCell><mxCell id="75" value="development_attempt: bool" style="text;align=left;verticalAlign=middle;spacingLeft=4;spacingRight=4;overflow=hidden;rotatable=0;points=[[0,0.5],[1,0.5]];portConstraint=eastwest;rounded=0;shadow=0;html=0;fontFamily=Courier New;fontSize=10;" vertex="1" parent="67"><mxGeometry y="110" width="480" height="20" as="geometry"/></mxCell><mxCell id="76" value="development_outcome: bool" style="text;align=left;verticalAlign=middle;spacingLeft=4;spacingRight=4;overflow=hidden;rotatable=0;points=[[0,0.5],[1,0.5]];portConstraint=eastwest;rounded=0;shadow=0;html=0;fontFamily=Courier New;fontSize=10;" vertex="1" parent="67"><mxGeometry y="130" width="480" height="20" as="geometry"/></mxCell><mxCell id="77" value="early_takeover: bool" style="text;align=left;verticalAlign=middle;spacingLeft=4;spacingRight=4;overflow=hidden;rotatable=0;points=[[0,0.5],[1,0.5]];portConstraint=eastwest;rounded=0;shadow=0;html=0;fontFamily=Courier New;fontSize=10;" vertex="1" parent="67"><mxGeometry y="150" width="480" height="20" as="geometry"/></mxCell><mxCell id="78" value="late_takeover: bool" style="text;align=left;verticalAlign=middle;spacingLeft=4;spacingRight=4;overflow=hidden;rotatable=0;points=[[0,0.5],[1,0.5]];portConstraint=eastwest;rounded=0;shadow=0;html=0;fontFamily=Courier New;fontSize=10;" vertex="1" parent="67"><mxGeometry y="170" width="480" height="20" as="geometry"/></mxCell><mxCell id="71" value="" style="line;html=1;strokeWidth=1;align=left;verticalAlign=middle;spacingTop=-1;spacingLeft=3;spacingRight=3;rotatable=0;labelPosition=right;points=[];portConstraint=eastwest;fontFamily=Courier New;fontSize=10;" vertex="1" parent="67"><mxGeometry y="190" width="480" height="10" as="geometry"/></mxCell><mxCell id="89" style="edgeStyle=orthogonalEdgeStyle;rounded=0;orthogonalLoop=1;jettySize=auto;html=1;exitX=0.5;exitY=0;exitDx=0;exitDy=0;entryX=0.5;entryY=1;entryDx=0;entryDy=0;endArrow=block;endFill=0;" edge="1" parent="WIyWlLk6GJQsqaUBKTNV-1" source="79" target="67"><mxGeometry relative="1" as="geometry"/></mxCell><mxCell id="79" value="OptimalMergerPolicySummary" style="swimlane;fontStyle=2;align=center;verticalAlign=top;childLayout=stackLayout;horizontal=1;startSize=30;horizontalStack=0;resizeParent=1;resizeLast=0;collapsible=1;marginBottom=0;rounded=0;shadow=0;strokeWidth=1;fontFamily=Courier New;fontSize=10;" vertex="1" parent="WIyWlLk6GJQsqaUBKTNV-1"><mxGeometry x="640" y="400" width="480" height="60" as="geometry"><mxRectangle x="230" y="140" width="160" height="26" as="alternateBounds"/></mxGeometry></mxCell><mxCell id="80" value="optimal_policy: MergerPolicies" style="text;align=left;verticalAlign=middle;spacingLeft=4;spacingRight=4;overflow=hidden;rotatable=0;points=[[0,0.5],[1,0.5]];portConstraint=eastwest;rounded=0;shadow=0;html=0;fontFamily=Courier New;fontSize=10;" vertex="1" parent="79"><mxGeometry y="30" width="480" height="20" as="geometry"/></mxCell><mxCell id="88" value="" style="line;html=1;strokeWidth=1;align=left;verticalAlign=middle;spacingTop=-1;spacingLeft=3;spacingRight=3;rotatable=0;labelPosition=right;points=[];portConstraint=eastwest;fontFamily=Courier New;fontSize=10;" vertex="1" parent="79"><mxGeometry y="50" width="480" height="10" as="geometry"/></mxCell><mxCell id="90" style="edgeStyle=orthogonalEdgeStyle;rounded=0;orthogonalLoop=1;jettySize=auto;html=1;exitX=0;exitY=0.5;exitDx=0;exitDy=0;entryX=1;entryY=0.5;entryDx=0;entryDy=0;endArrow=diamondThin;endFill=0;startArrow=none;startFill=0;" edge="1" parent="WIyWlLk6GJQsqaUBKTNV-1" target="2sFI9Li3K3q5MDXTztL8-16"><mxGeometry relative="1" as="geometry"><Array as="points"><mxPoint x="590" y="170"/><mxPoint x="590" y="600"/></Array><mxPoint x="640" y="170" as="sourcePoint"/><mxPoint y="1220" as="targetPoint"/></mxGeometry></mxCell><mxCell id="91" style="edgeStyle=orthogonalEdgeStyle;rounded=0;orthogonalLoop=1;jettySize=auto;html=1;exitX=0;exitY=0.5;exitDx=0;exitDy=0;entryX=1;entryY=0.5;entryDx=0;entryDy=0;startArrow=none;startFill=0;endArrow=diamondThin;endFill=0;" edge="1" parent="WIyWlLk6GJQsqaUBKTNV-1" source="40" target="2sFI9Li3K3q5MDXTztL8-17"><mxGeometry relative="1" as="geometry"><Array as="points"><mxPoint x="610" y="580"/><mxPoint x="610" y="620"/></Array></mxGeometry></mxCell><mxCell id="92" style="edgeStyle=orthogonalEdgeStyle;rounded=0;orthogonalLoop=1;jettySize=auto;html=1;exitX=0;exitY=0.5;exitDx=0;exitDy=0;entryX=1;entryY=0.5;entryDx=0;entryDy=0;startArrow=none;startFill=0;endArrow=diamondThin;endFill=0;" edge="1" parent="WIyWlLk6GJQsqaUBKTNV-1" source="60" target="2sFI9Li3K3q5MDXTztL8-18"><mxGeometry relative="1" as="geometry"><Array as="points"><mxPoint x="610" y="820"/><mxPoint x="610" y="640"/></Array></mxGeometry></mxCell><mxCell id="95" style="edgeStyle=orthogonalEdgeStyle;rounded=0;orthogonalLoop=1;jettySize=auto;html=1;exitX=0.5;exitY=0;exitDx=0;exitDy=0;startArrow=none;startFill=0;endArrow=block;endFill=0;" edge="1" parent="WIyWlLk6GJQsqaUBKTNV-1" source="93"><mxGeometry relative="1" as="geometry"><mxPoint x="1440" y="260" as="targetPoint"/></mxGeometry></mxCell><mxCell id="93" value="HarmAssetRange" style="swimlane;fontStyle=2;align=center;verticalAlign=top;childLayout=stackLayout;horizontal=1;startSize=30;horizontalStack=0;resizeParent=1;resizeLast=0;collapsible=1;marginBottom=0;rounded=0;shadow=0;strokeWidth=1;fontFamily=Courier New;fontSize=10;" vertex="1" parent="WIyWlLk6GJQsqaUBKTNV-1"><mxGeometry x="1380" y="340" width="120" height="40" as="geometry"><mxRectangle x="230" y="140" width="160" height="26" as="alternateBounds"/></mxGeometry></mxCell><mxCell id="94" value="" style="line;html=1;strokeWidth=1;align=left;verticalAlign=middle;spacingTop=-1;spacingLeft=3;spacingRight=3;rotatable=0;labelPosition=right;points=[];portConstraint=eastwest;fontFamily=Courier New;fontSize=10;" vertex="1" parent="93"><mxGeometry y="30" width="120" height="10" as="geometry"/></mxCell><mxCell id="98" value="AdditionalModels.py" style="rounded=0;whiteSpace=wrap;html=1;fillColor=none;dashed=1;labelPosition=left;verticalLabelPosition=top;align=right;verticalAlign=bottom;spacingLeft=0;spacingRight=-109;" vertex="1" parent="WIyWlLk6GJQsqaUBKTNV-1"><mxGeometry x="60" y="1300" width="520" height="80" as="geometry"/></mxCell><mxCell id="99" value="Types.py" style="rounded=0;whiteSpace=wrap;html=1;fillColor=none;dashed=1;labelPosition=left;verticalLabelPosition=top;align=right;verticalAlign=bottom;spacingLeft=0;spacingRight=-49;" vertex="1" parent="WIyWlLk6GJQsqaUBKTNV-1"><mxGeometry x="620" y="100" width="520" height="840" as="geometry"/></mxCell><mxCell id="100" value="Visualize.py" style="rounded=0;whiteSpace=wrap;html=1;fillColor=none;dashed=1;labelPosition=left;verticalLabelPosition=top;align=right;verticalAlign=bottom;spacingLeft=0;spacingRight=-65;" vertex="1" parent="WIyWlLk6GJQsqaUBKTNV-1"><mxGeometry x="1180" y="100" width="520" height="300" as="geometry"/></mxCell></root></mxGraphModel></diagram></mxfile>